<?xml version="1.0" encoding="UTF-8" standalone="no"?>
<!-- Generator: Adobe Illustrator 12.0.1, SVG Export Plug-In . SVG Version: 6.00 Build 51448)  -->

<svg
   version="1.0"
   id="Layer_1"
   width="500"
   height="234"
   viewBox="0 0 499.99999 233.99999"
   overflow="visible"
   enable-background="new 0 0 436.505 152.503"
   xml:space="preserve"
   sodipodi:docname="logo.svg"
   inkscape:version="1.4.2 (ebf0e940, 2025-05-08)"
   xmlns:inkscape="http://www.inkscape.org/namespaces/inkscape"
   xmlns:sodipodi="http://sodipodi.sourceforge.net/DTD/sodipodi-0.dtd"
   xmlns:xlink="http://www.w3.org/1999/xlink"
   xmlns="http://www.w3.org/2000/svg"
   xmlns:svg="http://www.w3.org/2000/svg"><defs
   id="defs7"><linearGradient
   id="linearGradient21"
   inkscape:collect="always"><stop
     style="stop-color:#ecf1f4;stop-opacity:1;"
     offset="0"
     id="stop1" /><stop
     style="stop-color:#1b1b1b;stop-opacity:1;"
     offset="0.12666667"
     id="stop12" /><stop
     style="stop-color:#b0b0b0;stop-opacity:1;"
     offset="0.32222223"
     id="stop13" /><stop
     style="stop-color:#8a8a8a;stop-opacity:1;"
     offset="0.42222223"
     id="stop14" /><stop
     style="stop-color:#575755;stop-opacity:1;"
     offset="0.68444443"
     id="stop15" /><stop
     style="stop-color:#fffcf9;stop-opacity:1;"
     offset="1"
     id="stop16" /></linearGradient><linearGradient
   id="linearGradient4"
   inkscape:collect="always"><stop
     style="stop-color:#d0dce6;stop-opacity:1;"
     offset="0"
     id="stop5" /><stop
     style="stop-color:#1b1b1b;stop-opacity:1;"
     offset="0.12666667"
     id="stop8" /><stop
     style="stop-color:#b0b0b0;stop-opacity:1;"
     offset="0.32222223"
     id="stop9" /><stop
     style="stop-color:#8a8a8a;stop-opacity:1;"
     offset="0.42222223"
     id="stop10" /><stop
     style="stop-color:#575755;stop-opacity:1;"
     offset="0.68444443"
     id="stop11" /><stop
     style="stop-color:#fffcf9;stop-opacity:1;"
     offset="1"
     id="stop6" /></linearGradient><linearGradient
   id="linearGradient2"
   inkscape:collect="always"><stop
     style="stop-color:#ea161d;stop-opacity:1;"
     offset="0"
     id="stop2" /><stop
     style="stop-color:#fed605;stop-opacity:0.99346405;"
     offset="0.38571483"
     id="stop4" /><stop
     style="stop-color:#fed605;stop-opacity:0.59477127;"
     offset="0.69285738"
     id="stop7" /><stop
     style="stop-color:#e72423;stop-opacity:1;"
     offset="1"
     id="stop3" /></linearGradient><linearGradient
   id="linearGradient33"
   inkscape:collect="always"><stop
     style="stop-color:#686868;stop-opacity:1;"
     offset="0"
     id="stop33" /><stop
     style="stop-color:#515151;stop-opacity:1;"
     offset="1"
     id="stop34" /></linearGradient><linearGradient
   id="linearGradient23"
   inkscape:collect="always"><stop
     style="stop-color:#556fff;stop-opacity:1;"
     offset="0"
     id="stop23" /><stop
     style="stop-color:#55ffdd;stop-opacity:1;"
     offset="1"
     id="stop24" /></linearGradient>

















	<linearGradient
   inkscape:collect="always"
   xlink:href="#linearGradient23"
   id="linearGradient24-2"
   x1="-1.61845"
   y1="76.251953"
   x2="438.9454"
   y2="76.251953"
   gradientUnits="userSpaceOnUse"
   gradientTransform="translate(0.44608772)" /><radialGradient
   inkscape:collect="always"
   xlink:href="#linearGradient33"
   id="radialGradient34-3"
   cx="420.73083"
   cy="-35.568977"
   fx="420.73083"
   fy="-35.568977"
   r="250.93925"
   gradientTransform="matrix(0.99999998,0,0,0.34876765,0.44608775,56.344295)"
   gradientUnits="userSpaceOnUse" /><linearGradient
   inkscape:collect="always"
   xlink:href="#linearGradient2"
   id="linearGradient3"
   x1="500.60034"
   y1="20.117506"
   x2="501.96881"
   y2="196.27393"
   gradientUnits="userSpaceOnUse"
   gradientTransform="matrix(1.0204083,0,0,1.0211722,-5.4285455,-9.8468987)" /><linearGradient
   inkscape:collect="always"
   xlink:href="#linearGradient4"
   id="linearGradient6"
   x1="500.60034"
   y1="20.117506"
   x2="501.96881"
   y2="196.27393"
   gradientUnits="userSpaceOnUse"
   gradientTransform="matrix(1.0204083,0,0,1.0211722,-5.4285455,-9.8468987)" /><linearGradient
   inkscape:collect="always"
   xlink:href="#linearGradient2"
   id="linearGradient14"
   gradientUnits="userSpaceOnUse"
   x1="500.60034"
   y1="20.117506"
   x2="501.96881"
   y2="196.27393"
   gradientTransform="matrix(1.0204083,0,0,1.0211722,-5.4285455,-9.8468987)" /><linearGradient
   inkscape:collect="always"
   xlink:href="#linearGradient2"
   id="linearGradient15"
   gradientUnits="userSpaceOnUse"
   x1="500.60034"
   y1="20.117506"
   x2="501.96881"
   y2="196.27393"
   gradientTransform="matrix(1.0204083,0,0,1.0211722,-5.4285455,-9.8468987)" /><linearGradient
   inkscape:collect="always"
   xlink:href="#linearGradient2"
   id="linearGradient16"
   gradientUnits="userSpaceOnUse"
   x1="500.60034"
   y1="20.117506"
   x2="501.96881"
   y2="196.27393"
   gradientTransform="matrix(1.0204083,0,0,1.0211722,-5.4285455,-9.8468987)" /><linearGradient
   inkscape:collect="always"
   xlink:href="#linearGradient2"
   id="linearGradient17"
   gradientUnits="userSpaceOnUse"
   x1="354.36993"
   y1="36.360443"
   x2="354.36993"
   y2="200.51122"
   gradientTransform="matrix(1.0204083,0,0,1.0211722,-5.4285455,-9.8468987)" /><linearGradient
   inkscape:collect="always"
   xlink:href="#linearGradient21"
   id="linearGradient18"
   gradientUnits="userSpaceOnUse"
   x1="354.36993"
   y1="36.360443"
   x2="354.36993"
   y2="200.51122"
   gradientTransform="matrix(1.0204083,0,0,1.0211722,-5.4285455,-9.8468987)" /><linearGradient
   inkscape:collect="always"
   xlink:href="#linearGradient2"
   id="linearGradient19"
   gradientUnits="userSpaceOnUse"
   x1="500.60034"
   y1="20.117506"
   x2="501.96881"
   y2="196.27393"
   gradientTransform="matrix(1.0204083,0,0,1.0211722,-5.4285455,-9.8468987)" /><linearGradient
   inkscape:collect="always"
   xlink:href="#linearGradient4"
   id="linearGradient20"
   gradientUnits="userSpaceOnUse"
   x1="500.60034"
   y1="20.117506"
   x2="501.96881"
   y2="196.27393"
   gradientTransform="matrix(1.0204083,0,0,1.0211722,-5.4285455,-9.8468987)" /></defs><sodipodi:namedview
   id="namedview7"
   pagecolor="#ffffff"
   bordercolor="#000000"
   borderopacity="0.25"
   inkscape:showpageshadow="2"
   inkscape:pageopacity="0.0"
   inkscape:pagecheckerboard="0"
   inkscape:deskcolor="#d1d1d1"
   inkscape:zoom="1.416"
   inkscape:cx="306.49718"
   inkscape:cy="117.23164"
   inkscape:window-width="1728"
   inkscape:window-height="1051"
   inkscape:window-x="0"
   inkscape:window-y="38"
   inkscape:window-maximized="0"
   inkscape:current-layer="Layer_1" />

<g
   id="g20"
   transform="translate(5.3265048,9.176263)"><g
     id="g12"
     style="font-weight:600;font-size:86.5889px;line-height:1;font-family:'Noto Sans Syriac';-inkscape-font-specification:'Noto Sans Syriac, Semi-Bold @wght=600';font-variation-settings:'wght' 600;text-align:center;text-anchor:middle;fill:url(#linearGradient16);stroke:#000000;stroke-width:10.2079;stroke-linecap:round;stroke-linejoin:round;stroke-dasharray:none;stroke-opacity:1;paint-order:fill markers stroke"
     aria-label="TIME&#10;machine"
     transform="matrix(0.97999983,0,0,0.97926678,-0.00653106,0.46647769)"><path
       style="font-weight:normal;font-family:'Back to the future 2002';-inkscape-font-specification:'Back to the future 2002, ';fill:url(#linearGradient14);stroke:#000000;stroke-width:10.2079;stroke-dasharray:none;stroke-opacity:1"
       d="m 180.84212,23.006408 q 4.65077,10.781333 5.79232,13.825473 1.18383,3.001862 1.18383,3.001862 h -22.83106 q 4.6085,12.007444 6.97616,19.490958 2.40995,7.441233 4.18569,14.586508 1.77575,7.145275 4.48166,25.790639 h -21.09759 q -3.88974,-21.520386 -7.27212,-35.092181 -3.38237,-13.571795 -8.79418,-24.522246 h -18.89904 q -4.94673,-11.711487 -7.61035,-17.081013 h 3.21326 z m 31.75208,76.484041 q -0.29596,-9.301542 -1.47979,-15.558943 -1.14156,-6.2574 -2.79047,-12.64164 -1.60663,-6.42652 -3.80517,-13.783194 -2.19855,-7.398954 -4.77761,-14.121432 -2.57907,-6.764757 -4.65077,-11.584647 -2.02943,-4.81989 -4.31254,-9.301542 l 20.88619,0.338238 q 6.34196,13.783194 9.47066,21.647225 3.17098,7.86403 5.83461,17.672929 2.66362,9.766619 3.97429,18.095727 1.35295,8.329107 2.19855,19.237279 z m 36.52969,-0.380518 q -0.88787,-14.121431 -2.45222,-21.985462 -1.52207,-7.864031 -3.84746,-16.193138 -2.2831,-8.371388 -5.53864,-17.334692 -3.25554,-9.005584 -6.00373,-14.924746 -2.7059,-5.961443 -2.45222,-5.665485 h 23.12701 l 19.91376,18.603084 6.13056,-18.899042 21.47811,0.295958 q 5.58092,10.612214 8.62506,19.913755 3.04414,9.301542 4.43937,13.656355 1.39524,4.312533 3.88974,18.476244 2.53678,14.121432 2.95958,24.395407 h -19.27956 q -1.94487,-18.307125 -4.10113,-26.171156 -2.15627,-7.864031 -7.44124,-21.900903 l -9.72433,17.207853 -18.09573,-15.812621 q 4.43937,14.544229 5.66548,22.112301 1.22612,7.525793 1.90259,15.897181 0.67648,8.329107 0.25368,8.667345 h -19.15272 l 0.29596,0.295958 v 0 z m 83.2488,-0.04228 q -0.93016,-12.641641 -2.19855,-21.182148 -1.26839,-8.582786 -3.17098,-16.193138 -1.86031,-7.610353 -4.35481,-15.516663 -2.45222,-7.906311 -7.65263,-23.127015 h 19.57552 l 35.09218,0.04228 q 5.28496,10.485374 6.72247,16.150858 l -35.72637,-0.295958 q 2.79046,7.568073 4.27025,12.683921 l 35.6841,0.295958 q 1.94486,6.680198 3.46694,15.516663 h -35.72638 q 2.15627,12.641641 2.2831,15.812621 l 36.5297,0.295958 q 0.71875,7.90631 0.84559,15.854901 h -55.64013 z"
       id="path11" /><path
       style="font-weight:normal;font-family:'Back to the future 2002';-inkscape-font-specification:'Back to the future 2002, ';fill:url(#linearGradient15);stroke:#000000;stroke-width:10.2079;stroke-dasharray:none;stroke-opacity:1"
       d="m -0.32655001,196.08491 q 6.51107921,-14.12143 9.09014311,-21.98546 2.5790639,-7.86403 4.6507709,-16.19314 2.113987,-8.37139 3.551498,-17.33469 1.47979,-9.00558 1.860308,-14.92475 0.380518,-5.96144 0.507357,-5.66548 18.941321,0 23.127015,0 l 10.147136,18.60308 16.02402,-18.5608 21.351266,-0.0423 q 0,10.61221 -1.860308,19.91375 -1.818029,9.30155 -2.705903,13.65636 -0.887874,4.31253 -3.340099,12.17656 -2.409945,7.86403 -4.904449,14.16371 -2.452225,6.2574 -7.398954,16.53138 H 50.493692 q 7.652632,-18.30712 9.5975,-26.17116 1.987147,-7.86403 4.058854,-21.9009 L 45.420123,165.55892 35.611225,149.7463 q -3.17098,14.54423 -5.919163,22.1123 -2.748183,7.5258 -6.468799,15.89718 -3.678337,8.32911 -4.270254,8.66735 H -0.1997108 l 0.1268392,0.29596 v 0 z M 161.77396,120.02367 q 0.93015,4.77761 1.31067,9.93574 0.38052,5.11584 -0.25368,12.81076 -0.59192,7.69491 -2.36766,16.36225 -1.77575,8.66735 -4.01658,16.53138 -2.24083,7.86403 -7.14527,20.67479 h -19.15272 l 4.86216,-14.12143 1.64891,-6.76476 -19.06816,-0.29596 -3.25554,10.27398 -4.77761,10.90817 H 89.856127 q 4.312533,-10.56993 6.553359,-17.79977 2.240826,-7.22983 4.058854,-14.24827 1.86031,-7.06071 2.9173,-14.41739 1.09928,-7.39895 2.36767,-14.79791 1.26839,-7.39895 6.2574,-11.54236 5.03129,-4.1857 8.41367,-4.35482 3.42465,-0.16911 13.23355,-0.12683 9.85118,0 28.11603,0.97243 z m -42.02606,39.15103 20.16743,0.29596 q 2.45223,-9.63978 2.74819,-13.27583 0.29595,-3.67834 1.22611,-12.68393 -14.67107,-0.97243 -16.53138,0.97244 -1.86031,1.90259 -3.00186,5.75004 -1.09927,3.80518 -4.39709,18.60309 z m 57.92324,37.29073 q -4.86217,0 -7.7372,-2.57906 -2.83274,-2.62135 -2.74818,-5.49637 0.12684,-2.87502 1.90259,-9.47066 1.81803,-6.63792 3.67834,-15.81262 1.86031,-9.1747 2.79046,-15.47438 0.93015,-6.29968 1.43751,-10.31626 0.50736,-4.01657 1.56435,-7.69491 1.09927,-3.72062 4.56621,-6.76476 3.46694,-3.08642 8.41367,-3.25554 4.94673,-0.16912 15.8549,0 10.90817,0.16912 25.8752,0.50736 l -0.29596,11.58465 -0.38052,2.66362 -0.38052,1.94487 -14.12143,-0.33824 q -16.23542,0 -17.46153,0.67647 -1.18383,0.6342 -2.0717,2.24083 -0.88788,1.56435 -1.73347,5.58093 -0.80332,3.97429 -1.90259,10.27397 -1.09927,6.2574 -2.02943,10.52766 -0.93015,4.27025 -1.18383,6.29968 -0.2114,1.98714 -0.12684,2.87502 0.12684,0.84559 1.47979,2.66362 1.39523,1.77575 9.34382,1.77575 h 22.02774 l -1.43751,5.8346 -3.97429,11.75377 h -40.50399 z m 99.61106,-18.13801 q -1.98715,5.91917 0,0 1.98714,-5.96144 0,0 z m -47.48015,18.09573 q 5.66549,-13.78319 7.90631,-20.50567 2.24083,-6.76476 4.05886,-13.95231 1.86031,-7.22984 2.87502,-14.58651 1.05699,-7.39896 1.64891,-13.149 0.6342,-5.79232 1.64891,-14.45967 h 14.16371 l 7.90631,0.0423 q -1.05699,10.52765 -1.60663,15.68578 -0.54963,5.11585 -1.94487,13.44496 l 17.75749,0.33824 q 1.69119,-10.61222 2.45223,-17.63065 0.80331,-7.06072 0.67647,-11.58465 l 21.39355,0.0423 -0.84559,11.20413 q -1.2684,12.81076 -2.70591,20.97075 -1.39523,8.15999 -3.21326,15.26298 -1.77575,7.06072 -4.10113,13.65636 -2.32539,6.55335 -6.63792,15.55894 h -20.54795 q 4.60849,-12.5148 6.59564,-18.43397 1.98714,-5.96144 3.59377,-13.02215 l -17.79976,-0.29596 q -1.90259,6.38424 -4.01658,12.00744 -2.11399,5.62321 -8.07543,19.4064 h -20.84391 z m 72.17151,-29.17302 q 1.81803,-7.39895 0,0 -1.77575,7.35668 0,0 z m 5.58091,29.2153 4.22797,-9.30154 q 3.72062,-12.5148 5.15813,-18.89904 1.47979,-6.42652 2.83274,-13.7832 1.39523,-7.39895 2.07171,-14.12143 0.71875,-6.76476 0.97243,-11.58465 0.25368,-4.81989 0.16912,-9.30154 l 21.18215,0.6342 q -0.76104,13.48723 -1.43751,21.35126 -0.67648,7.86404 -2.74818,17.67293 -2.02943,9.76662 -4.73533,18.09573 -2.70591,8.32911 -7.14528,19.23728 z m 36.23372,-0.38052 q 0,0 3.17098,-7.22983 3.21326,-7.22984 6.34196,-16.36226 3.17098,-9.1747 5.11585,-18.47624 1.98715,-9.30155 3.3401,-16.99646 1.39523,-7.69491 1.56435,-12.5148 0.16912,-4.81989 0.50736,-4.81989 h 16.86961 l 16.10858,41.89922 q 4.05886,-18.13801 5.11585,-26.46712 1.05699,-8.37138 1.35295,-15.4321 h 21.22443 q -2.66363,26.00204 -7.18756,42.23746 -4.48165,16.19314 -5.87688,20.04059 -1.35295,3.84746 -6.17284,14.45967 l -16.10858,-0.0423 -13.3604,-30.82193 q -5.24268,16.44682 -6.63792,20.29428 -1.35295,3.84745 -4.60849,10.56993 h -20.59023 z m 80.12013,-0.0423 q 5.32725,-12.64164 8.32911,-21.18214 3.04414,-8.58279 4.94673,-16.19314 1.90259,-7.61036 3.38238,-15.51667 1.52207,-7.90631 3.88973,-22.83105 h 20.33656 l 34.88078,0.0423 q -0.50736,10.18941 -1.90259,15.8549 l -35.55726,-0.29596 q -1.05699,7.56807 -2.11399,12.68392 l 35.55726,0.29596 q -1.39523,6.6802 -4.31253,15.51666 h -35.72638 q -4.10113,12.64164 -5.6232,15.81262 l 36.44513,0.29596 q -3.25554,7.90631 -7.103,15.8549 h -55.64013 z"
       id="path12" /></g><g
     id="text1"
     style="font-weight:600;font-size:86.5889px;line-height:1;font-family:'Noto Sans Syriac';-inkscape-font-specification:'Noto Sans Syriac, Semi-Bold @wght=600';font-variation-settings:'wght' 600;text-align:center;text-anchor:middle;fill:url(#linearGradient3);stroke:url(#linearGradient6);stroke-width:5.10395;stroke-linecap:round;stroke-linejoin:round;paint-order:fill markers stroke"
     aria-label="TIME&#10;machine"
     transform="matrix(0.97999983,0,0,0.97926678,-0.00653106,0.46647769)"><path
       style="font-weight:normal;font-family:'Back to the future 2002';-inkscape-font-specification:'Back to the future 2002, ';fill:url(#linearGradient17);stroke:url(#linearGradient18);stroke-width:5.10395"
       d="m 180.84212,23.006408 q 4.65077,10.781333 5.79232,13.825473 1.18383,3.001862 1.18383,3.001862 h -22.83106 q 4.6085,12.007444 6.97616,19.490958 2.40995,7.441233 4.18569,14.586508 1.77575,7.145275 4.48166,25.790639 h -21.09759 q -3.88974,-21.520386 -7.27212,-35.092181 -3.38237,-13.571795 -8.79418,-24.522246 h -18.89904 q -4.94673,-11.711487 -7.61035,-17.081013 h 3.21326 z m 31.75208,76.484041 q -0.29596,-9.301542 -1.47979,-15.558943 -1.14156,-6.2574 -2.79047,-12.64164 -1.60663,-6.42652 -3.80517,-13.783194 -2.19855,-7.398954 -4.77761,-14.121432 -2.57907,-6.764757 -4.65077,-11.584647 -2.02943,-4.81989 -4.31254,-9.301542 l 20.88619,0.338238 q 6.34196,13.783194 9.47066,21.647225 3.17098,7.86403 5.83461,17.672929 2.66362,9.766619 3.97429,18.095727 1.35295,8.329107 2.19855,19.237279 z m 36.52969,-0.380518 q -0.88787,-14.121431 -2.45222,-21.985462 -1.52207,-7.864031 -3.84746,-16.193138 -2.2831,-8.371388 -5.53864,-17.334692 -3.25554,-9.005584 -6.00373,-14.924746 -2.7059,-5.961443 -2.45222,-5.665485 h 23.12701 l 19.91376,18.603084 6.13056,-18.899042 21.47811,0.295958 q 5.58092,10.612214 8.62506,19.913755 3.04414,9.301542 4.43937,13.656355 1.39524,4.312533 3.88974,18.476244 2.53678,14.121432 2.95958,24.395407 h -19.27956 q -1.94487,-18.307125 -4.10113,-26.171156 -2.15627,-7.864031 -7.44124,-21.900903 l -9.72433,17.207853 -18.09573,-15.812621 q 4.43937,14.544229 5.66548,22.112301 1.22612,7.525793 1.90259,15.897181 0.67648,8.329107 0.25368,8.667345 h -19.15272 l 0.29596,0.295958 v 0 z m 83.2488,-0.04228 q -0.93016,-12.641641 -2.19855,-21.182148 -1.26839,-8.582786 -3.17098,-16.193138 -1.86031,-7.610353 -4.35481,-15.516663 -2.45222,-7.906311 -7.65263,-23.127015 h 19.57552 l 35.09218,0.04228 q 5.28496,10.485374 6.72247,16.150858 l -35.72637,-0.295958 q 2.79046,7.568073 4.27025,12.683921 l 35.6841,0.295958 q 1.94486,6.680198 3.46694,15.516663 h -35.72638 q 2.15627,12.641641 2.2831,15.812621 l 36.5297,0.295958 q 0.71875,7.90631 0.84559,15.854901 h -55.64013 z"
       id="path7" /><path
       style="font-weight:normal;font-family:'Back to the future 2002';-inkscape-font-specification:'Back to the future 2002, ';fill:url(#linearGradient19);stroke:url(#linearGradient20);stroke-width:5.10395"
       d="m -0.32655001,196.08491 q 6.51107921,-14.12143 9.09014311,-21.98546 2.5790639,-7.86403 4.6507709,-16.19314 2.113987,-8.37139 3.551498,-17.33469 1.47979,-9.00558 1.860308,-14.92475 0.380518,-5.96144 0.507357,-5.66548 18.941321,0 23.127015,0 l 10.147136,18.60308 16.02402,-18.5608 21.351266,-0.0423 q 0,10.61221 -1.860308,19.91375 -1.818029,9.30155 -2.705903,13.65636 -0.887874,4.31253 -3.340099,12.17656 -2.409945,7.86403 -4.904449,14.16371 -2.452225,6.2574 -7.398954,16.53138 H 50.493692 q 7.652632,-18.30712 9.5975,-26.17116 1.987147,-7.86403 4.058854,-21.9009 L 45.420123,165.55892 35.611225,149.7463 q -3.17098,14.54423 -5.919163,22.1123 -2.748183,7.5258 -6.468799,15.89718 -3.678337,8.32911 -4.270254,8.66735 H -0.1997108 l 0.1268392,0.29596 v 0 z M 161.77396,120.02367 q 0.93015,4.77761 1.31067,9.93574 0.38052,5.11584 -0.25368,12.81076 -0.59192,7.69491 -2.36766,16.36225 -1.77575,8.66735 -4.01658,16.53138 -2.24083,7.86403 -7.14527,20.67479 h -19.15272 l 4.86216,-14.12143 1.64891,-6.76476 -19.06816,-0.29596 -3.25554,10.27398 -4.77761,10.90817 H 89.856127 q 4.312533,-10.56993 6.553359,-17.79977 2.240826,-7.22983 4.058854,-14.24827 1.86031,-7.06071 2.9173,-14.41739 1.09928,-7.39895 2.36767,-14.79791 1.26839,-7.39895 6.2574,-11.54236 5.03129,-4.1857 8.41367,-4.35482 3.42465,-0.16911 13.23355,-0.12683 9.85118,0 28.11603,0.97243 z m -42.02606,39.15103 20.16743,0.29596 q 2.45223,-9.63978 2.74819,-13.27583 0.29595,-3.67834 1.22611,-12.68393 -14.67107,-0.97243 -16.53138,0.97244 -1.86031,1.90259 -3.00186,5.75004 -1.09927,3.80518 -4.39709,18.60309 z m 57.92324,37.29073 q -4.86217,0 -7.7372,-2.57906 -2.83274,-2.62135 -2.74818,-5.49637 0.12684,-2.87502 1.90259,-9.47066 1.81803,-6.63792 3.67834,-15.81262 1.86031,-9.1747 2.79046,-15.47438 0.93015,-6.29968 1.43751,-10.31626 0.50736,-4.01657 1.56435,-7.69491 1.09927,-3.72062 4.56621,-6.76476 3.46694,-3.08642 8.41367,-3.25554 4.94673,-0.16912 15.8549,0 10.90817,0.16912 25.8752,0.50736 l -0.29596,11.58465 -0.38052,2.66362 -0.38052,1.94487 -14.12143,-0.33824 q -16.23542,0 -17.46153,0.67647 -1.18383,0.6342 -2.0717,2.24083 -0.88788,1.56435 -1.73347,5.58093 -0.80332,3.97429 -1.90259,10.27397 -1.09927,6.2574 -2.02943,10.52766 -0.93015,4.27025 -1.18383,6.29968 -0.2114,1.98714 -0.12684,2.87502 0.12684,0.84559 1.47979,2.66362 1.39523,1.77575 9.34382,1.77575 h 22.02774 l -1.43751,5.8346 -3.97429,11.75377 h -40.50399 z m 99.61106,-18.13801 q -1.98715,5.91917 0,0 1.98714,-5.96144 0,0 z m -47.48015,18.09573 q 5.66549,-13.78319 7.90631,-20.50567 2.24083,-6.76476 4.05886,-13.95231 1.86031,-7.22984 2.87502,-14.58651 1.05699,-7.39896 1.64891,-13.149 0.6342,-5.79232 1.64891,-14.45967 h 14.16371 l 7.90631,0.0423 q -1.05699,10.52765 -1.60663,15.68578 -0.54963,5.11585 -1.94487,13.44496 l 17.75749,0.33824 q 1.69119,-10.61222 2.45223,-17.63065 0.80331,-7.06072 0.67647,-11.58465 l 21.39355,0.0423 -0.84559,11.20413 q -1.2684,12.81076 -2.70591,20.97075 -1.39523,8.15999 -3.21326,15.26298 -1.77575,7.06072 -4.10113,13.65636 -2.32539,6.55335 -6.63792,15.55894 h -20.54795 q 4.60849,-12.5148 6.59564,-18.43397 1.98714,-5.96144 3.59377,-13.02215 l -17.79976,-0.29596 q -1.90259,6.38424 -4.01658,12.00744 -2.11399,5.62321 -8.07543,19.4064 h -20.84391 z m 72.17151,-29.17302 q 1.81803,-7.39895 0,0 -1.77575,7.35668 0,0 z m 5.58091,29.2153 4.22797,-9.30154 q 3.72062,-12.5148 5.15813,-18.89904 1.47979,-6.42652 2.83274,-13.7832 1.39523,-7.39895 2.07171,-14.12143 0.71875,-6.76476 0.97243,-11.58465 0.25368,-4.81989 0.16912,-9.30154 l 21.18215,0.6342 q -0.76104,13.48723 -1.43751,21.35126 -0.67648,7.86404 -2.74818,17.67293 -2.02943,9.76662 -4.73533,18.09573 -2.70591,8.32911 -7.14528,19.23728 z m 36.23372,-0.38052 q 0,0 3.17098,-7.22983 3.21326,-7.22984 6.34196,-16.36226 3.17098,-9.1747 5.11585,-18.47624 1.98715,-9.30155 3.3401,-16.99646 1.39523,-7.69491 1.56435,-12.5148 0.16912,-4.81989 0.50736,-4.81989 h 16.86961 l 16.10858,41.89922 q 4.05886,-18.13801 5.11585,-26.46712 1.05699,-8.37138 1.35295,-15.4321 h 21.22443 q -2.66363,26.00204 -7.18756,42.23746 -4.48165,16.19314 -5.87688,20.04059 -1.35295,3.84746 -6.17284,14.45967 l -16.10858,-0.0423 -13.3604,-30.82193 q -5.24268,16.44682 -6.63792,20.29428 -1.35295,3.84745 -4.60849,10.56993 h -20.59023 z m 80.12013,-0.0423 q 5.32725,-12.64164 8.32911,-21.18214 3.04414,-8.58279 4.94673,-16.19314 1.90259,-7.61036 3.38238,-15.51667 1.52207,-7.90631 3.88973,-22.83105 h 20.33656 l 34.88078,0.0423 q -0.50736,10.18941 -1.90259,15.8549 l -35.55726,-0.29596 q -1.05699,7.56807 -2.11399,12.68392 l 35.55726,0.29596 q -1.39523,6.6802 -4.31253,15.51666 h -35.72638 q -4.10113,12.64164 -5.6232,15.81262 l 36.44513,0.29596 q -3.25554,7.90631 -7.103,15.8549 h -55.64013 z"
       id="path8" /></g></g></svg>
